/* XPM */
static char *result[] = {
/* columns rows colors chars-per-pixel */
"64 64 225 2 ",
"   c #550516",
".  c #5E0915",
"X  c #590716",
"o  c #620B15",
"O  c #6B0E15",
"+  c #6C0B1A",
"@  c #650F18",
"#  c #720D14",
"$  c #6D1215",
"%  c #6A1118",
"&  c #691718",
"*  c #721214",
"=  c #7B1614",
"-  c #791618",
";  c #7E2416",
":  c #733A1B",
">  c #793718",
",  c #7E401C",
"<  c #841B14",
"1  c #8B1D13",
"2  c #881716",
"3  c #921B15",
"4  c #921B19",
"5  c #99181B",
"6  c #911C0E",
"7  c #AA191D",
"8  c #B51D1C",
"9  c #8D2115",
"0  c #8C231A",
"q  c #842515",
"w  c #93251B",
"e  c #95291D",
"r  c #9B2B1C",
"t  c #972415",
"y  c #85381A",
"u  c #99351B",
"i  c #9C220F",
"p  c #B8280A",
"a  c #A32D1C",
"s  c #AA2915",
"d  c #BA251C",
"f  c #A6311E",
"g  c #AB331B",
"h  c #B3341A",
"j  c #BA391A",
"k  c #B2330C",
"l  c #991422",
"z  c #A51324",
"x  c #AA1922",
"c  c #B31925",
"v  c #BE1829",
"b  c #BD1828",
"n  c #903122",
"m  c #AD2E21",
"M  c #B72626",
"N  c #AB3420",
"B  c #A73722",
"V  c #B43B25",
"C  c #C71E1D",
"Z  c #C52D08",
"A  c #CB3509",
"S  c #D43505",
"D  c #DB3305",
"F  c #DB3A05",
"G  c #DA3609",
"H  c #C9241E",
"J  c #D32916",
"K  c #C43915",
"L  c #D23410",
"P  c #E53A00",
"I  c #E53A06",
"U  c #E23815",
"Y  c #C1192A",
"T  c #C92628",
"R  c #D42C2A",
"E  c #D12B36",
"W  c #DA3536",
"Q  c #D12C2E",
"!  c #E33D38",
"~  c #87481D",
"^  c #964A1B",
"/  c #9C531C",
"(  c #97501C",
")  c #BE461D",
"_  c #AA5C1E",
"`  c #A5581B",
"'  c #B1501C",
"]  c #894D22",
"[  c #8C5124",
"{  c #955825",
"}  c #915834",
"|  c #AC4521",
" . c #BB4426",
".. c #B84927",
"X. c #A85B26",
"o. c #B85528",
"O. c #BB5830",
"+. c #9E642D",
"@. c #996239",
"#. c #AA6323",
"$. c #AA6A2B",
"%. c #B46A25",
"&. c #B46C28",
"*. c #B9742D",
"=. c #AC6A36",
"-. c #B9763A",
";. c #B97839",
":. c #B26C36",
">. c #DC430D",
",. c #C4421E",
"<. c #DC4511",
"1. c #D54411",
"2. c #DC531A",
"3. c #C2450C",
"4. c #E2450B",
"5. c #E9450B",
"6. c #EC4A1C",
"7. c #ED4412",
"8. c #E55316",
"9. c #ED5718",
"0. c #F0481D",
"q. c #C34E29",
"w. c #C75529",
"e. c #D45926",
"r. c #CC512F",
"t. c #E84328",
"y. c #F24A23",
"u. c #F24C28",
"i. c #E65B26",
"p. c #F1512C",
"a. c #EB4231",
"s. c #FB5338",
"d. c #F0473F",
"f. c #DB652B",
"g. c #D76229",
"h. c #C27B2D",
"j. c #CD6331",
"k. c #C66830",
"l. c #D66B34",
"z. c #DD6D33",
"x. c #D56632",
"c. c #C47D33",
"v. c #DE7237",
"b. c #D67037",
"n. c #C9602F",
"m. c #E2682D",
"M. c #E7672A",
"N. c #F26E2C",
"B. c #E56C33",
"V. c #E96F34",
"C. c #E27437",
"Z. c #EC7535",
"A. c #EF7837",
"S. c #ED7938",
"D. c #F37A37",
"F. c #F57B38",
"G. c #F77B37",
"H. c #F5712E",
"J. c #BD7E43",
"K. c #B16B44",
"L. c #F34C43",
"P. c #FE5543",
"I. c #FC5A44",
"U. c #FE5B4A",
"Y. c #F45148",
"T. c #FF5E51",
"R. c #FD6355",
"E. c #FB665A",
"W. c #F15E61",
"Q. c #FC6C63",
"!. c #FA6C6A",
"~. c #FD716B",
"^. c #FF7674",
"/. c #FF797A",
"(. c #BF8134",
"). c #C38233",
"_. c #CB8835",
"`. c #D4933A",
"'. c #D7983C",
"]. c #D18F38",
"[. c #BF8F66",
"{. c #C68A46",
"}. c #CC9249",
"|. c #D49849",
" X c #C68B56",
".X c #D59A51",
"XX c #CE9254",
"oX c #DBA04C",
"OX c #DBA252",
"+X c #DEA858",
"@X c #E1AB5B",
"#X c #CA9768",
"$X c #D39C6A",
"%X c #D8A66B",
"&X c #CCA37F",
"*X c #D8AA76",
"=X c #DEB176",
"-X c #E1AE69",
";X c #E3B36C",
":X c #E5B876",
">X c #FF7E82",
",X c #FF8085",
"<X c #D7AB83",
"1X c #DCB387",
"2X c #E4BD8D",
"3X c #E1B787",
"4X c #E4BE91",
"5X c #E3BF9B",
"6X c #E6C18D",
"7X c #E9C594",
"8X c #E5C29D",
"9X c #EBC792",
"0X c #F0CE97",
"qX c #F2D29D",
"wX c #E6C5A1",
"eX c #EBCBA4",
"rX c #E9C9A3",
"tX c #EED1A7",
"yX c #F2D6AB",
"uX c #F5DBAE",
"iX c #F3D6A7",
"pX c #F7DDB1",
"aX c #F8DFB3",
"sX c #F9E1B5",
"dX c None",
/* pixels */
"dXdXdXdXdXdXdXdXdXdXdXdXdXdXdXdXdXdXdXdXdXdXdXdXdXdXdXdXdXdXdXdXdXdXdXdXdXdXdXdXdXdXdXdXdXdX5X8X5X3XOX'.dXdXdXdXdXdXdXdXdXdXdXdX",
"dXdXdXdXdXdXdXdXdXdXdXdXdXdXdXdXdXdXdXdXdXdXdXdXdXdXdXdXdXdXdXdXdXdXdXdXdXdXdXdXdXdXdXdXdXdX8XrXeX2X-X.XdXdXdXdXdXdXdXdXdXdXdXdX",
"dXdXdXdXdXdXdXdXdXdXdXdXdXdXdXdXdXdXdXdXdXdXdXdXdXdXdXdXdXdXdXdXdXdXdXdXdXdXdXdXdXdXdXdX5X8XiXyXyXeX2X;XOX'.dXdXdXdXdXdXdXdXdXdX",
"dXdXdXdXdXdXdXdXdXdXdXdXdXdXdXdXdXdXdXdXdXdXdXdXdXdXdXdXdXdXdXdXdXdXdXdXdXdXdXdXdXdXdXdXrXeXuXaXpXuXtX3X.X).dXdXdXdXdXdXdXdXdXdX",
"dXdXdXdXdXdXdXdXdXdXdXdXdXdXdXdXdXdXdXdXdXdXdXdXdXdXdXdXdXdXdXdXdXdXdXdXdXdXdXdXdXdXdXdXyXyXuXuXuXpXpX2X{.X.~ : : : : : dXdXdXdX",
"dXdXdXdXdXdXdXdXdXdXdXdXdXdXdXdXdXdXdXdXdXdXdXdXdXdXdXdXdXdXdXdXdXdXdXdXdXdXdXdXdXdXdXdXiXpXpXpXuXpXaX2XJ./ , , ] ~ ~ ~ dXdXdXdX",
"dXdXdXdXdXdXdXdXdXdXdXdXdXdXdXdXdXdXdXdXdXdXdXdXdXdXdXdXdXdXdXdXdXdXdXdXdXdXdXdXdXdX`.@X0XaXpXuXuXaXaX4XJ./ > ] $.*.X./ _ _ dXdX",
"dXdXdXdXdXdXdXdXdXdXdXdXdXdXdXdXdXdXdXdXdXdXdXdXdXdXdXdXdXdXdXdXdXdXdXdXdXdXdXdXdXdX`.@X9XaXpXpXaXuXqX:X:.( ( +.{.OX{.-.&.&.dXdX",
"dXdXdXdXdXdXdXdXdXdXdXdXdXdXdXdXdXdXdXdXdXdXdXdXdXdXdXdXdXdXdXdXdXdXdXdXdXdXdXdXdXdX'.@X0XpXpXaXsXqX:X}.{ ] &.}.*X1X<X%X}.).%._ ",
"dXdXdXdXdXdXdXdXdXdXdXdXdXdXdXdXdXdXdXdXdXdXdXdXdXdXdXdXdXdXdXdXdXdXdXdXdXdXdXdXdXdX].+X7XuXyXtX7X=X}.$.{ +.}.%X6XrXwX2X+X_.&._ ",
"dXdXdXdXdXdXdXdXdXdXdXdXdXdXdXdXdXdXdXdXdXdXdXdXdXdXdXdXdXdXa h F 4.f.b.b.g.4.S h o._.+X4XeXeX3X X=.{ { *.{.*X2X8XrXrX2X+X_.%._ ",
"dXdXdXdXdXdXdXdXdXdXdXdXdXdXdXdXdXdXdXdXdXdXdXdXdXdXdXdXdXdXq.q.<.8.m.v.v.m.8.4.K ,.g.|.$X<X3X%X(.#.[ +.}.-X2X5X1X&X&X#X}.).%._ ",
"dXdXdXdXdXdXdXdXdXdXdXdXdXdXdXdXdXdXdXdXdXdXdXdXN p D 4.e.v.z.M.M.N.Z.A.Z.A.N.i.F F >.2.q.K.XXOX|._.).}.*X6XwX1X X:.@.} #.&.dXdX",
"dXdXdXdXdXdXdXdXdXdXdXdXdXdXdXdXdXdXdXdXdXdXdXdX .q.<.8.m.C.D.D.F.F.G.D.G.D.D.M.5.I 4.1.K o.k.c.c.).`.OX:X1X1X#X=.( > ~ / _ dXdX",
"dXdXdXdXdXdXdXdXdXdXdXdXdXdXdXdXdXdXdXdXP 4.e.z.B.B.N.N.Z.D.D.G.F.F.D.G.G.D.C.M.4.4.2.f.x.w.o.| u | _.oXOXoX{.=.[ y dXdXdXdXdXdX",
"dXdXdXdXdXdXdXdXdXdXdXdXdXdXdXdXdXdXdXdX5.8.m.C.A.F.F.F.F.D.D.Z.A.D.D.D.G.Z.m.e.1.1.e.k.b.j.q.N e u #.;._.*.X.( , : dXdXdXdXdXdX",
"dXdXdXdXdXdXdXdXdXdXdXdXdXdXdXdXP 4.e.z.N.N.Z.A.D.G.G.G.G.D.C.z.v.C.Z.F.G.N.8.1.j h V ..j.l.j.q.B e ; y X.#.( , dXdXdXdXdXdXdXdX",
"dXdXdXdXdXdXdXdXdXdXdXdXdXdXdXdX>.2.m.C.D.G.G.D.A.A.Z.Z.N.M.m.g.l.v.S.Z.B.i.5.F K  . .q.l.C.C.l.w.u % & y ^ , : dXdXdXdXdXdXdXdX",
"dXdXdXdXdXdXdXdXdXdXdXdXdXdXN  .e.m.Z.A.D.D.G.D.C.v.v.m.8.4.4.2.f.v.v.x.q.,.F >.e.j.z.B.Z.A.A.C.l...w * & & dXdXdXdXdXdXdXdXdXdX",
"dXdXdXdXdXdXdXdXdXdXdXdXdXdXh ,.e.f.Z.Z.A.Z.B.B.z.v.v.f.5.I D 1.q.n.l.j...) <.8.m.C.F.G.G.G.G.A.v.n.| 0 $ . dXdXdXdXdXdXdXdXdXdX",
"dXdXdXdXdXdXdXdXdXdXdXdXB h A F >.8.m.v.v.l.q.q.B.S.F.M.5.F K g r | w.b.j.g.M.H.D.D.G.G.G.G.G.A.v.b.j.| 0 % .   dXdXdXdXdXdXdXdX",
"dXdXdXdXdXdXdXdXdXdXdXdXh K <.4.4.2.f.z.f.e.j ,.e.Z.F.H.9.U K g i g n.v.v.C.S.F.G.A.Z.f.f.f.Z.S.v.l.l.q.r - o   dXdXdXdXdXdXdXdX",
"dXdXdXdXdXdXdXdXdXdXdXdXF 1.e.g.g.f.z.f.8.>.F A K w.V.G.H.i.4.S A 1.M.S.A.D.D.D.G.Z.w.V f | j.v.v.l.q.B w = .   dXdXdXdXdXdXdXdX",
"dXdXdXdXdXdXdXdXdXdXdXdX>.<.e.j.j.n.O. .k S F >.K ,.e.V.m.M.<.F P 5.N.G.G.G.G.D.N.i.,.s i r w.g.n...B 0 < * @ o dXdXdXdXdXdXdXdX",
"dXdXdXdXdXdXdXdXdXdX< r e.e.q.....B ; & O 6 S P F L q. . . .j K F 5.H.G.G.G.G.N.9.4.F A g g 1.1.h 0 - @ o O * * o   dXdXdXdXdXdX",
"dXdXdXdXdXdXdXdXdXdX9 r ..o.g f k s 2 * + 2 p D I Z s w e e r g A <.e.Z.A.A.A.N.8.>.F L h h p p 1 $ o o . $ = = o   dXdXdXdXdXdX",
"dXdXdXdXdXdXdXdX< 9 r f u e 9 i Z F Z p 7 z C Y C 7 - + @ * < t h j  .w.x.C.v.z.f.e.K j V B < O o o * = = = < = o   dXdXdXdXdXdX",
"dXdXdXdXdXdXdXdX9 w f a 4 1 i s G 7.6.t.W E Q R H 8 2 O + # 2 4 w e r g w.j.j.j.j.O.B e e 1 + . . $ = < 1 < 1 = o   dXdXdXdXdXdX",
"dXdXdXdXdXdXdXdXa a B m x 8 Z G p.I.E.!.!.W.Y.! U D Z p 7 7 z z - $ < t N  . .....f ; @ & * = = = = < 1 < 1 < = o   dXdXdXdXdXdX",
"dXdXdXdXdXdXdXdXN g N M T R t.p.s.R./.,X,X/.Q.P.y.U 6.t.W E E M 2 = 2 4 e e w e a 0 % o . o * = = = < < = = = * @ o dXdXdXdXdXdX",
"dXdXdXdXdXdXdXdXN N M T ! Y.E.E.U.R.^.,X,X$X>X!.s.s.R.!.!.W.Y.t.L p 8 5 - @ + % 9 9 = = = * o o o * = = O o o @ * = dXdXdXdXdXdX",
"dXdXdXdXdXdXdXdXm M T W Y.Q.^.Q.I.I.E.E.Q.!.!.!.Q.Q./.,X>X/.Q.Y.s.U W v 2 O o @ * = = = = * .     . * * .   . $ = 1 dXdXdXdXdXdX",
"dXdXdXdXdXdXdXdXM T ! Y.!.~.E.I.0.7.6.6.6.p.U.E.~././.,X,X/./.~.~.E.Y.a.L p = $ o o o o o o X     X . .   . $ = < < dXdXdXdXdXdX",
"dXdXdXdXdXdXdXdXC R Y.Q./.^.I.6.I F D D D U a.L.E.~.~././.,X,X>X/.~.U.s.7.S p 6 $ . X       o o o o % @ o $ = 1 < 1 dXdXdXdXdXdX",
"dXdXdXdXdXdXdXdXS U E./.,XQ.p.5.I F J H C Y T W t.p.I.Q./.,X,X/.Q.T.U.s.7.P A p 1 $ .     . * = = < 0 w < - < < < < dXdXdXdXdXdX",
"dXdXdXdXdXdXdXdX7.p.Q.,X/.E.u.U I L H M M M M d A 1.t.Y.E.Q.Q.E.U.P.T.I.6.P 5.S 7 2 o X . O = < 9 t f f t 9 < < = = dXdXdXdXdXdX",
"dXdXdXdXdXdXv Q a.U.^.^.E.T.s.a.R T h | | | / ' ' ,.Q R U y.y.p.s.R.Q.Q.I.y.I F C l + . * = < 9 r f g N m r 1 = O o dXdXdXdXdXdX",
"dXdXdXdXdXdXv T L.R./.^.R.P.P.a.T V =.(.J.{.J.;.*.X.B d Z D P I u.I.^./.Q.P.y.U J 7 # o < 9 9 0 r f B B a r 9 = o   dXdXdXdXdXdX",
"dXdXdXdXdXdXv E L.E.^.^.R.d.W Q V O.#X1X1X7X6X=X.X*.( e d H F I I p.!.>X/.Q.P.u.U p + + 0 N B m w t f f w 1 1 < dXdXdXdXdXdXdXdX",
"dXdXdXdXdXdXc M t.s.E.E.I.a.T j X.{.1XtXyXuXpX9XOX;.{ y m d D I P y.Q.>X>X^.R.s.5.Z 2 - 0 e e e 9 t f a 9 < - = dXdXdXdXdXdXdXdX",
"dXdXdXdXdXdX4 s L 7.6.6.7.<.,._ h..X9XyXeXeXeX1X{.X.` ^ y u F I P 6.E.,X>X/.T.s.I D 8 l - + + & w B N a 9 = O o dXdXdXdXdXdXdXdX",
"dXdXdXdXdXdX< 3 Z D P P A 3._ (.|.:XqXyXrX8XwX*X-.X.%.#.[ ^ k S U p.!.$X^.~.T.s.y.U T z +   @ - r N g e < * .   dXdXdXdXdXdXdXdX",
"dXdXdXdXdXdX< 4 d J I F k ( &..X:XqXuXyXwX5XwX<X-.%.).).#.^ a s ! U.^./.E.T.U.P.s.! T z + @ 2 r N m w < $ o dXdXdXdXdXdXdXdXdXdX",
"dXdXdXdXdXdX< 3 z d Z k ( +.}.:XiXsXaXiXrX5X1X#X;.*.`._.#.^ q s t.U.!.!.T.P.P.I.P.L.Q z + % e N f w < * .   dXdXdXdXdXdXdXdXdXdX",
"dXdXdXdXdXdXdXdX4 3 q ( &.}.:XqXyXaXaXyXrX<X X;.).].'._.{ > ; i A y.P.T.I.P.P.I.U.L.E z + + e N r < O . dXdXdXdXdXdXdXdXdXdXdXdX",
"dXdXdXdXdXdXdXdXu ^ [ +.}.;XqXsXuXuXuXuXeX<X-.%._.'.`.*.[ > ; i Z U ! d.P.I.U.P.s.! R z + o w e < * .   dXdXdXdXdXdXdXdXdXdXdXdX",
"dXdXdXdXdXdXdXdXc.*.(.{.*X7XyXsXpXuXuXuXuX1X-.%._.].*.X.] > q 3 8 T T W L.I.U.s.0.U Y z + o < < $ . dXdXdXdXdXdXdXdXdXdXdXdXdXdX",
"dXdXdXdXdXdXdXdX+X+X+X-X6X8XtXyXuXsXaXaXaX4X{.*.|.|.*.{ y ; 9 5 c v b T a.s.s.y.5.P J z + o # # o   dXdXdXdXdXdXdXdXdXdXdXdXdXdX",
"dXdXdXdXdXdX'.+X6X0X0X0X7X8XrXeXpXpXpXpXpX9XOX}.*X%X;.` q 9 x c b b Y T U I 7.7.P I Y z +   . o dXdXdXdXdXdXdXdXdXdXdXdXdXdXdXdX",
"dXdXdXdXdXdX.X;X0XaXsXiXeX8X8X8X6X8XiXpXsX0X;X-X2X&X:.^ 9 3 c v Y Y Y H G P I D A Z 8 l +       dXdXdXdXdXdXdXdXdXdXdXdXdXdXdXdX",
"dXdXdXdX` -.:XqXuXpXpXuXyXtXrX1X XXX8XaXpXiX6X1X5X<X@.> q 3 c Y Y v v Y U P J 8 7 6 - + dXdXdXdXdXdXdXdXdXdXdXdXdXdXdXdXdXdXdXdX",
"dXdXdXdXJ.XX7XsXpXuXpXpXsXiX6X$X=.:.1XyXyXtXwXwX5X<X} > ; 4 c v Y b c 8 Z Z 8 x 3 * .   dXdXdXdXdXdXdXdXdXdXdXdXdXdXdXdXdXdXdXdX",
"dXdX` ;.%X7XiXpXpXuXuXpXaXqX;X{.{ @.<XrXrXwX8X8XwX<X} > - 4 c v Y c 5 4 i t 3 1 dXdXdXdXdXdXdXdXdXdXdXdXdXdXdXdXdXdXdXdXdXdXdXdX",
"dXdX-.#X7XsXpXuXpXuXpXuXyX7X|.$.[ @.&X5X8X8X8X5X<X[.} > = 1 7 c c 7 3 < < < < < dXdXdXdXdXdXdXdXdXdXdXdXdXdXdXdXdXdXdXdXdXdXdXdX",
"_ -.*X7XuXpXpXpXuXuXuXuXtX<XK.] ( :.&X8X8XwXwX1X[.=.] > q < 4 4 4 3 dXdXdXdXdXdXdXdXdXdXdXdXdXdXdXdXdXdXdXdXdXdXdXdXdXdXdXdXdXdX",
"` J.2XsXpXpXpXuXpXuXuXtX6X[.} , / -.%X2X8X8X4X$X=.~ > > q < < < < < dXdXdXdXdXdXdXdXdXdXdXdXdXdXdXdXdXdXdXdXdXdXdXdXdXdXdXdXdXdX",
"` J.6XsXaXuXuXpXpXuXeX6X-X{.[ , / *.}.-X2X4X-X{.{ > dXdXdXdXdXdXdXdXdXdXdXdXdXdXdXdXdXdXdXdXdXdXdXdXdXdXdXdXdXdXdXdXdXdXdXdXdXdX",
"_ ;.=XqXuXpXaXuXuXeX6X=XOX(.] , ( #.h.}.%X$X{.$.[ : dXdXdXdXdXdXdXdXdXdXdXdXdXdXdXdXdXdXdXdXdXdXdXdXdXdXdXdXdXdXdXdXdXdXdXdXdXdX",
"_ *.|.:XqXaXaXuXtX6X%XoXoX(.[ , > [ #.*.-.=.{ ] dXdXdXdXdXdXdXdXdXdXdXdXdXdXdXdXdXdXdXdXdXdXdXdXdXdXdXdXdXdXdXdXdXdXdXdXdXdXdXdX",
"_ %.).|.:X0X0X9X2X=XoX`._.=., : : ~ / _ _ / ~ : dXdXdXdXdXdXdXdXdXdXdXdXdXdXdXdXdXdXdXdXdXdXdXdXdXdXdXdXdXdXdXdXdXdXdXdXdXdXdXdX",
"dXdX%.h.|.@X@X+XOXOXoX_.+., , , dXdXdXdXdXdXdXdXdXdXdXdXdXdXdXdXdXdXdXdXdXdXdXdXdXdXdXdXdXdXdXdXdXdXdXdXdXdXdXdXdXdXdXdXdXdXdXdX",
"dXdXX.%.)._._._.(.(.(.*.[ , : , dXdXdXdXdXdXdXdXdXdXdXdXdXdXdXdXdXdXdXdXdXdXdXdXdXdXdXdXdXdXdXdXdXdXdXdXdXdXdXdXdXdXdXdXdXdXdXdX",
"dXdXdXdX%.%.&.#.{ [ [ [ dXdXdXdXdXdXdXdXdXdXdXdXdXdXdXdXdXdXdXdXdXdXdXdXdXdXdXdXdXdXdXdXdXdXdXdXdXdXdXdXdXdXdXdXdXdXdXdXdXdXdXdX",
"dXdXdXdX_ #._ / , : : : dXdXdXdXdXdXdXdXdXdXdXdXdXdXdXdXdXdXdXdXdXdXdXdXdXdXdXdXdXdXdXdXdXdXdXdXdXdXdXdXdXdXdXdXdXdXdXdXdXdXdXdX"
};
