/* XPM */
static char *result[] = {
/* columns rows colors chars-per-pixel */
"64 64 14 1 ",
"  c black",
". c #612529",
"X c gray50",
"o c #91595C",
"O c #F75B63",
"+ c #C9757A",
"@ c #FFC90E",
"# c #F59D5A",
"$ c #F7AB79",
"% c gray63",
"& c #FF949B",
"* c #C3C3C3",
"= c white",
"- c None",
/* pixels */
"---------------------------------   -----  ---------------------",
"--------------------------------     --     --------------------",
"------------------------   ----  @@  -   @  --------------------",
"-----------------------  @  --  @@@@    @@  --------------------",
"----------------------- @@@            @@@@ --------------------",
"----------------    --- @@@@    .....    @@ --------------------",
"----------------        @@@   ..OOOOOOO      -------------------",
"---------------  @@@        OOOOOOOOOOOOO      -----------------",
"---------------X @@@@@    OOOOOOOOOOOOOOOOO     ----------------",
"---------------- @@@@   OOOOOOOOOOOOOOOOOOOOO   X---------------",
"-----------   --X @@   OOOOOOOOOOOOOOOOOOOOOOO    --------------",
"----------      - @o  OOOOOOOOOOOOOOOOOOOOOOOOO    -------------",
"----------  @@    .  OOOOOOOOOOOOOOOOOOOOOOOOOOO    ------------",
"----------  @@@     OOOOOOOOOOOOOOOOOOOOOOOOOOOOO    -----------",
"----------  @@@@   OOOOOOOOOOOOOOOOOOOOOOOOOOOOOOO   -----------",
"----------- @@@.  OOOOOOOOOOOOOOOOOOOOOOOOOOOOOOOOO   ----------",
"-----------  @@  OOOOOOOOOOOOOOOOOOOOOOOOOOOOOOOOOOO  ----------",
"--------      . OOOOOOOOOOOOOOOOOOOOOOOOOOOOOOOOOOOOO  ---------",
"-------         OOOOOOOOOOOOOOOOOOOOOOOOOOOOOo  oOOOO   --------",
"------   @@@@. OOOOOOOOOOOOOOOOOOOo  oOOOOOOO  = OOOOO  --------",
"------  @@@@@  OOOOOOOOOOOOOOOOOOO  = OOOOOOO    OOOOOO  -------",
"------  @@@@. OOOOOOOOOOOOO#$$#OOO    OOOOOOOo  oOO#$$.   ------",
"-------  @@@  OOOOOOOOOOOO#$$$$#OOo  oOOOOOOOOOOOO$$$=$    -----",
"--------  @@ OOOOOOOOOOOOO$$$=$$OOOOOOOOOOOOOOOOOOO#$$#O   -----",
"--------   . OOOOOOOOOOOOOO$$$$#OOOOOOOOOOOOOOOOOOOOOOO    -----",
"--------     OOOOOOOOOOOOOOOOO OOOOOOOOOOOOOOOOOOOOOOO    ------",
"------   @@  OOOOOOOOOOOOOOOO   OOOOOOOOOOOOOO          %-------",
"------  @@@  OOOOOOOOOOOOOOOOO                        X---------",
"------  @@@  OOOOOOOOOOOOOOOOOO               === ==  ----------",
"------- @@@  OOOOOOOOOOOOOOOOOOO === ===  ==   =   =  ----------",
"-------  @@. OOOOOOOOOOOOOOOOOOO  =   =   =      O     ---------",
"--------     OOOOOOOOOOOOOOOOOOOO   O   O   OOO OOOOO  ---------",
"-------     OOOOOOOOOOOOOO OOOOOOO OOOOOO&&==&&OOOOOO   --------",
"-----   @@  OOOOOOOOOOOOOO  OOOOOOOOOO&&========&OOOO    -------",
"----   @@@  OOOOOOOOOOOOOO.  OOOOOOOO&===========&++OO    ------",
"----   @@@  OOOOOOOOOOOOOOO.  OOOOO&&&==============& O    -----",
"-----   @@  OOOOOOOOOOOOOOOO.  OO&&&================= +O    ----",
"------   @  OOOOOOOOOOOOOOOOO.  &&===================  OO   ----",
"---  --     OOOOOOOOOOOOOOOOOO.  ====================   OO  ----",
"---  ---    OOOOOOOOOOOOOOOOOO..  ===================   OO   ---",
"--    ----  OOOOOOOOOOOOOOOOOOO..  ===================  OO   ---",
"--  O   --  OOOOOOOOOOOOOOOOOOOOO   ==================  OOO  ---",
"--  OO   -  OOOOOOOOOOOOOOOOOOOOOO  ==================  OOO  ---",
"--  OOO     OOOOOOOOOOO. OOOOOOOOOO  =================  OOO  ---",
"--  OOOO     OOOOOOOOOOO   OOOOOOOO  =================   OO  ---",
"---  OOOOO   OOOOOOOOOOOO    OOOO    ================        ---",
"---  OOOOOO   OOOOOOOOOOOOO         =================        ---",
"----  OOOOO   OOOOOOOOOOOOOOO      ==================   -    ---",
"----   OOOOO   OOOOOOOOOOOOOOOOO====================   *--------",
"-----   OOOOOOOOOOOOOOOOOOOOOOOO&==================    ---------",
"-----    OOOOOOOOOOOOOOOOOOOOOOOO=================    X---------",
"------   OOOOOO  OOOOOOOOOOOOOOOO&===============    -----------",
"-------   OOOOO  OOOOOOOOOOOOOOOOO&=============    ------------",
"-------    OOOO  OOOOOOOOOOOOOOO  O============    X------------",
"--------     OO  oOOOOOOOOOOOOOO  O&=========     --------------",
"---------     O   OOOOOOOOOOOOOO   OO&&==         --------------",
"----------%       OOOOOOOOOOOOOO   OOOO&&          -------------",
"------------      OOOOOOOOOOOOOOO    OOOOOOOOOOO    ------------",
"--------------     OOOOOOOOOOOOOOO   OOOOOOOOOOO.    -----------",
"----------------   OOOOOOOOOOOOOOOO    OOOOOOOOOOO    ----------",
"-----------------   OOOOOOOOOOOOOOO    OOOOOOOOOOOO    ---------",
"-----------------   OOOOOOOOOOOOOOOO    OOOOOOOOOOOO   ---------",
"------------------                                     ---------",
"-------------------                                    ---------"
};
