/* XPM */
static char *result[] = {
/* columns rows colors chars-per-pixel */
"64 64 222 2 ",
"   c #392E1A",
".  c #3E321B",
"X  c #4C3713",
"o  c #4C3816",
"O  c #41341C",
"+  c #46381E",
"@  c #4A3B1E",
"#  c #48371A",
"$  c #453A23",
"%  c #4D3D21",
"&  c #443D2D",
"*  c #483E2A",
"=  c #503F20",
"-  c #413F36",
";  c #3F413E",
":  c #6A4E1D",
">  c #4B412B",
",  c #534222",
"<  c #594623",
"1  c #5D4A25",
"2  c #5F4C2A",
"3  c #454135",
"4  c #474337",
"5  c #5A5037",
"6  c #634D24",
"7  c #634F28",
"8  c #684F21",
"9  c #6A5224",
"0  c #66512A",
"q  c #6A542B",
"w  c #6A5429",
"e  c #745927",
"r  c #735B2D",
"t  c #795D28",
"y  c #645132",
"u  c #605339",
"i  c #785F30",
"p  c #7D612A",
"a  c #7C6332",
"s  c #73613B",
"d  c #54421F",
"f  c #3E4444",
"g  c #3D4C5A",
"h  c #3C4954",
"j  c #384D63",
"k  c #3B526A",
"l  c #3D5063",
"z  c #375577",
"x  c #424643",
"c  c #42484B",
"v  c #414C54",
"b  c #5D5C4F",
"n  c #746950",
"m  c #4C5D6B",
"M  c #6F5F41",
"N  c #8E671F",
"B  c #83642A",
"V  c #8B6A2C",
"C  c #896624",
"Z  c #9B752E",
"A  c #96712D",
"S  c #816633",
"D  c #856934",
"F  c #896C36",
"G  c #896D3A",
"H  c #8E7038",
"J  c #937234",
"K  c #94753A",
"L  c #9C7B3D",
"P  c #9F7B34",
"I  c #926F2D",
"U  c #A57C2D",
"Y  c #A47E37",
"T  c #876F45",
"R  c #89714E",
"E  c #887759",
"W  c #847C6B",
"Q  c #B3842B",
"!  c #A98238",
"~  c #B58934",
"^  c #BA8C35",
"/  c #B48835",
"(  c #BD913C",
")  c #C39236",
"_  c #CC9A39",
"`  c #C99736",
"'  c #D39F3B",
"]  c #DBA33C",
"[  c #D6A03B",
"{  c #E4A837",
"}  c #E9AC37",
"|  c #E5AB3C",
" . c #E9AD3C",
".. c #E0A739",
"X. c #EDB13E",
"o. c #F0B23D",
"O. c #A58241",
"+. c #AD8943",
"@. c #AB8743",
"#. c #B38D45",
"$. c #B58F49",
"%. c #B79046",
"&. c #B99247",
"*. c #B59256",
"=. c #B59667",
"-. c #B59871",
";. c #AF986F",
":. c #958569",
">. c #C59C4C",
",. c #CA9F4D",
"<. c #C39845",
"1. c #CDA14E",
"2. c #CFA045",
"3. c #D8A648",
"4. c #D2A651",
"5. c #D6A952",
"6. c #DCAD54",
"7. c #D8AC5F",
"8. c #D7AA56",
"9. c #E5AD43",
"0. c #E8AF42",
"q. c #E3AD4B",
"w. c #EBB244",
"e. c #E7B14B",
"r. c #ECB44A",
"t. c #F4BB4D",
"y. c #F3B949",
"u. c #E2AE52",
"i. c #E2B155",
"p. c #E9B655",
"a. c #E6B459",
"s. c #E8B758",
"d. c #EEBB5B",
"f. c #EEB955",
"g. c #F4BC52",
"h. c #F2BE5C",
"j. c #F8BF52",
"k. c #DDAF62",
"l. c #DFB266",
"z. c #DCB47A",
"x. c #DCB374",
"c. c #CDB17E",
"v. c #E7B866",
"b. c #E7BD7A",
"n. c #FBC255",
"m. c #F5C15D",
"M. c #FBC45C",
"N. c #FFC95D",
"B. c #F7C057",
"V. c #F4C161",
"C. c #FDC760",
"Z. c #FFCA62",
"A. c #F5C46D",
"S. c #FDCA6D",
"D. c #F9C76C",
"F. c #FFD064",
"G. c #EDC374",
"H. c #ECC37B",
"J. c #F2C574",
"K. c #FACA78",
"L. c #EEC069",
"P. c #355A87",
"I. c #2C5C98",
"U. c #325F95",
"Y. c #2F598E",
"T. c #356298",
"R. c #2E65AC",
"E. c #3164A4",
"W. c #2C6AB9",
"Q. c #296EC6",
"!. c #2675DB",
"~. c #2870CD",
"^. c #989185",
"/. c #A19C91",
"(. c #A7A299",
"). c #B5A589",
"_. c #BDB8AF",
"`. c #DAB78A",
"'. c #DDBA8A",
"]. c #DEBC94",
"[. c #E1BB87",
"{. c #E0BD92",
"}. c #C1BFBB",
"|. c #EBC586",
" X c #F2CB83",
".X c #FECE82",
"XX c #F5CA89",
"oX c #FCD288",
"OX c #E6C39C",
"+X c #E8C494",
"@X c #F4CD99",
"#X c #FED395",
"$X c #F8D49A",
"%X c #D0C7B6",
"&X c #EFCAA1",
"*X c #F1CDA3",
"=X c #FCD4A5",
"-X c #FFD7A9",
";X c #F5DCAC",
":X c #FFDAAB",
">X c #FAD8A4",
",X c #EAD4AB",
"<X c #F9E1B4",
"1X c #FAE4B9",
"2X c #FCE0AC",
"3X c #CCCBC7",
"4X c #D2D0CD",
"5X c #DCDDDE",
"6X c #D1CFCC",
"7X c #F9EDD7",
"8X c #FDF2DD",
"9X c #F7E4C1",
"0X c #ECEAE7",
"qX c #F1EEE7",
"wX c #FCF3E2",
"eX c #F3F1EC",
"rX c #F4F4F3",
"tX c #FAFAF9",
"yX c #FBF8F4",
"uX c #EDEFF3",
"iX c #E0DFDD",
"pX c None",
/* pixels */
"pXpXpXpXpXpXpXpXpX@ @ @ + + + + O O O O O + O O O O O O O O O O . . . O O . O O . . O O O O O . O O O . O . O O . O O O pXpXpXpX",
"pXpXpXpXpXpXpXpXpX% @ @ @ @ @ @ % % % % % @ % @ % % % % % % % % % % @ + % % % @ , @ @ @ % @ % % % % % @ % % % % @ @ % % pXpXpXpX",
"pXpXpXpXpXpXpXpX@ @ @ = , < 1 6 6 6 6 6 6 6 6 6 7 8 6 8 7 6 1 1 w 7 0 7 0 0 9 0 0 0 q q w w 0 q 0 q w w 0 q w 0 w w 0 7 pXpXpXpX",
"pXpXpXpXpXpXpXX # + @ , 6 e B V V V V V V V V V V V p V V F H O.O.H O.H O.H F O.K K K K K K K K K K K K K K K K K K F S r pXpXpX",
"pXpXpXpXpXo o # # # @ 1 t A U ~ ^ ^ / / / / / / / / ~ ~ ^ ( ( <.>.>.>.>.&.&.>.>.>.>.>.>.>.,.>.,.>.,.>.>.>.>.,.,.>.>.#.L i 1 % . ",
"pXpXpXpX* * * * $ @ = 6 B ! ` ] ] ..] ] ] ] ] ] ] ] [ ] ] q.9.B.m.s.m.m.m.m.m.m.m.d.d.d.d.d.d.d.d.d.h.d.d.h.h.m.m.a.1.O.a 1 @ . ",
"pXpXpXpXx c x 4 - & , 9 V ~ [  .X.X. .} | } | } } } | | w.B.B.B.B.M.N.N.M.F.m.F.Z.N.N.N.M.n.n.n.M.n.n.n.n.M.N.Z.Z.M.6.@.S 1 @ O ",
"pXpX3 c k z z k h - > : I ~ [  .o.X.} } } } } } } } } } X.X.X.B.B.B.M.N.F.F.F.F.F.N.M.n.B.B.t.B.g.j.g.j.g.j.n.Z.F.Z.i.#.S 1 @ . ",
"X % 3 v P.E.R.U.z f > 9 V ~ [ }  .X.| { } | ..| | { } | | | | B.r.B.B.n.F.N.F.Z.Z.M.B.t.r.w.w.w.w.w.w.w.w.r.j.n.N.M.6.@.S 2 + . ",
"X % 3 l U.W.Q.W.Y.h > 9 N ~ [ | 9.| e.e.e.r.9.B.e.e.e.e.e.9.| | w.r.B.n.m.m.M.m.m.f.r.r.w.0.0. .w.0.9.9. .w.r.j.g.p.1.O.a 2 + + ",
"X @ 3 l U.Q.!.Q.Y.g 3 6 C Q ' 9.B.m.L.G.G.G.G.G.G.G.G.G.L.s.e.9. .w.B.B.M.L.i.4.1.1.3.3.w.w.r.r.w.w.w.w.w.w.q.3.4.>.+.H q < @ + ",
"X @ 3 l T.~.!.Q.Y.g > 6 N Q ' e.L.H.@X;X;X<X<X<X<X<X;X,X$XH.s.e.0.X.B.B.V.i.&.@.L ! &.3.e.t.t.t.g.t.g.j.g.e.5.<.! K S r 2 , + + ",
"X @ 3 j T.Q.!.Q.Y.g > 6 N Q ' p.K.;X1X8XwXwXwX8X8X8XwX8X9X,XL.p.w.w.n.B.f.4.@.G a S O.,.p.m.M.M.m.h.n.N.M.f.4./ F r 2 , , @ @ @ ",
"X % 3 v P.R.W.R.P.v > : N Q ' p.K.1X8XyXtXuX0XuXeXuXtXyX7X;XH.s.0.y.n.B.B.1.O.a r a ! 1.d.M.Z.Z.N.N.Z.Z.Z.h.4.+.F q < , @ % @ @ ",
"o @ 3 x k P.U.P.j ; , : N Q [ d.oX1XeXtXuX5X6X}.3X5XuXtXwX1XH.s.0.y.n.n.m.5.%.L H L %.5.m.Z.Z.Z.Z.Z.Z.Z.Z.m.i.&.O.S r 0 < , % + ",
"@ @ * 4 c g j h f & = : N Q [ d.#X1XwXuX5X_./.:./.}.5XeXwX1X Xs.0.w.y.B.m.i.5.1.&.,.4.s.m.C.Z.Z.C.Z.Z.Z.Z.V.d.6.1.%.L S 0 , + + ",
"@ @ $ * * 3 3 3 & $ > 6 V Q _ s.oX1XwX0X6X(.W n W (.4X0XwX1X Xs.0.w.g.n.Z.V.h.d.a.d.d.m.M.C.M.Z.C.C.Z.C.M.C.V.m.h.i.>.L a < % . ",
"@ @ % % @ @ % $ & 3 4 u a P ( 8.|.1X8XqX6X(.W n :.(.4XuX8X1X Xs.0.w.y.j.C.C.C.C.N.M.Z.C.C.C.Z.C.C.C.M.C.C.C.Z.Z.Z.m.5.+.a 1 + + ",
"% @ @ o o o + 3 c g v m b T O.$.`.,X0XuXiX}.(.^.(.}.5XrXwX<X|.i.0.w.y.h.Z.Z.Z.Z.Z.Z.N.Z.Z.C.C.C.C.C.Z.C.C.Z.Z.F.Z.V.i.+.S 2 @ . ",
"pXpXpXo o o * 4 k P.T.T.m b s R ;.}.0XrXrXiX4X3X4XiXuXyXwX<X|.B.0.w.y.h.M.Z.C.C.Z.Z.Z.Z.C.C.C.C.C.C.C.C.Z.Z.Z.F.Z.M.5.+.S 2 @ . ",
"pXpXpXpXo @ * h z R.Q.W.T.v x i :._.iXeXtXtXeXqXeXrXyXyX7X,XH.s.0.w.t.n.C.Z.C.C.C.Z.M.Z.M.C.C.C.C.M.Z.C.Z.C.Z.Z.Z.m.6.! a 1 @ O ",
"pXpXpXpXX o 3 v P.W.!.Q.I.j 4 u O.).%X7XwXwX8X8X8X8X8X7X1X$XG.e.0.w.y.M.C.C.Z.C.C.C.C.Z.C.Z.Z.Z.Z.Z.Z.Z.C.Z.Z.Z.Z.m.6.+.S 1 @ . ",
"pXpXpXpXX o > h Y.Q.!.~.I.j 3 5 n =.`.,X;X2X2X;X;X;X;X,X XH.L.9.0.r.g.h.C.C.C.Z.C.Z.Z.Z.Z.F.Z.Z.Z.Z.Z.Z.Z.Z.Z.F.F.C.6.+.S 1 @ . ",
"pXpXpXpXX o 3 v Y.Q.!.~.E.j 4 2 a ! 7.L.D.J.J.L.G.L.L.G.L.s.e.e.0.r.g.n.C.C.Z.C.C.M.Z.Z.Z.Z.Z.C.Z.Z.Z.Z.Z.Z.Z.F.F.V.6.+.S 1 @ O ",
"pXpXpXpXX @ & c z R.Q.W.Y.j 3 1 p ! _ q.r.r.e.9.e.9.9.e.9.| | | 0.r.g.h.N.C.C.C.C.C.m.m.m.m.m.m.d.m.m.m.h.h.m.M.m.d.1.O.a < % . ",
"pXpXpXpXo o * c k T.E.T.z h 3 1 C Q ` ..} } { { { | ..| | ..| | 0.0.r.g.j.n.M.Z.m.m.a.6.1.1.1.1.1.1.1.1.1.1.1.4.1.>.+.H r < % O ",
"pXpXpXpXo @ * 3 h l k k h ; > 6 t Q ` { } } | | { { { { { { ..|  .9.0.r.t.g.h.M.M.a.1.$.O.K K K L L L L L K L L L K F a 7 , @ + ",
"pXpXpXpX@ @ @ > 3 x 4 f - & % 1 t Q ` ]  . . .| | { | | | | | | |  .0.0.w.t.n.n.m.6.&.K r 0 0 q q q q q q r q q q q q < , % @ @ ",
"pXpXpXpXpX@ @ @ @ % * $ + $ @ 6 p Q ` ..X. .| | | | | | | 9.| 9. .9.9.9.w.r.j.M.m.6.#.H q 1 , , , , > @ % = % % , , = % % @ $ @ ",
"pXpXpXpXpX@ @ @ o o o o # O @ 6 p ! _ | X.X.| | | | | | | 9.w.| r.r.w.w.r.g.j.N.m.i.>.O.G r 2 < % O O O . + + O . O O + O % @ @ ",
"pXpXpXpXpXpXpXpXpXpXpXo O # o 1 p ! ` | X.X.| 9.| | | | w.w.B.r.g.g.g.g.j.h.M.M.m.d.6.1.%.O.D q , # . . . pXpXpXpXpXpXpXpXpXpXpX",
"pXpXpXpXpXpXpXpXpXpXpXpXO O % 1 p Q ` ..X.X.| | | | | | w.r.B.B.n.M.M.C.j.M.M.Z.C.M.M.d.6.1.! a 2 @ O . pXpXpXpXpXpXpXpXpXpXpXpX",
"pXpXpXpXpXpXpXpXpXpXpXpXpX+ @ 1 B Z ) ' ] ....| | | | | w.r.j.M.Z.C.C.M.Z.Z.C.C.Z.Z.Z.Z.M.i.%.F 7 % . pXpXpXpXpXpXpXpXpXpXpXpXpX",
"pXpXpXpXpXpXpXpXpXpXpXpXpXpX% 1 e V Z Y ) _ ' | | |  .| 0.r.j.M.C.Z.Z.Z.C.M.N.M.M.N.Z.Z.M.i.%.F 7 @ + pXpXpXpXpXpXpXpXpXpXpXpXpX",
"pXpXpXpXpXpXpXpXpXpXpXpXpXpXpXpX6 9 B B A Y ` .. . .| | 0.y.j.h.M.C.C.N.C.C.C.M.N.Z.F.F.M.i.%.F 7 % . pXpXpXpXpXpXpXpXpXpXpXpXpX",
"pXpXpXpXpXpXpXpXpXpXpXpXpXpXpXpXpX= = 9 V U ) ..0. .0.9.w.r.j.h.C.C.C.S.C.C.C.Z.Z.Z.F.F.C.6.$.F 7 @ + pXpXpXpXpXpXpXpXpXpXpXpXpX",
"pXpXpXpXpXpXpXpXpXpXpXpXpXpXpXpXpXO $ = t Z ) ] 0.0.q.q.f.h.h.D.S.S.S.S.S.S.S.S.S.S.K.F.D.k.$.G 0 @ O pXpXpXpXpXpXpXpXpXpXpXpXpX",
"pXpXpXpXpXpXpXpXpXpXpXpXpXpXpXpXpX  O = 9 A ) 3.9.e.a.l.v.v.b..X.XoXoXK..X.X.X.XK..XoXoX.Xx.*.T 0 % O pXpXpXpXpXpXpXpXpXpXpXpXpX",
"pXpXpXpXpXpXpXpXpXpXpXpXpXpXpXpXpX  O = w A ) ] e.a.l.x.[.[.@X@X#X#X#X#X#X#X#X#X#X#X$X#X@X[.=.T y % . pXpXpXpXpXpXpXpXpXpXpXpXpX",
"pXpXpXpXpXpXpXpXpXpXpXpXpXpXpXpXpX% = 6 B U ) ] e.k.x.[.{.{.@X*X>X-X-X=X=X=X=X=X-X-X:X-X@X[.-.R y % O pXpXpXpXpXpXpXpXpXpXpXpXpX",
"pXpXpXpXpXpXpXpXpXpXpXpXpXpXpXpX7 q r S J / ` 9.u.l.z.`.{.OX&X-X-X:X:X-X-X-X-X-X-X:X<X:X=X].-.R y @ O pXpXpXpXpXpXpXpXpXpXpXpXpX",
"pXpXpXpXpXpXpXpXpXpXpXpXpXpXpX< r F Y @.&._ ' 9.u.k.z.[.OXOX&X-X-X-X:X:X-X:X:X-X:X:X2X2X=X{.-.R y @ O pXpXpXpXpXpXpXpXpXpXpXpXpX",
"pXpXpXpXpXpXpXpXpXpXpXpXpX. % 1 S O.>.5.3.q.9.9.u.k.z.`.{.OX*X=X-X:X:X-X-X-X-X-X-X-X:X:X=X].-.R y % O pXpXpXpXpXpXpXpXpXpXpXpXpX",
"pXpXpXpXpXpXpXpXpXpXpXpXpX, < r K $.6.d.j.y.0.9.3.k.x.`.{.OX*X=X-X-X-X-X>X-X-X-X-X-X<X2X=X{.-.R y = O pXpXpXpXpXpXpXpXpXpXpXpXpX",
"pXpXpXpXpXpXpXpXpXpXpXpXq i D J / ,.i.g.j.y.0.0.u.k.z.`.{.OX&X=X-X-X-X-X:X-X-X-X-X:X2X:X-X].-.R y % O pXpXpXpXpXpXpXpXpXpXpXpXpX",
"pXpXpXpXpXpXpXpXpXpX, w S L #.<.1.6.r.t.y.o. .9.u.k.z.`.OXOX*X-X:X:X-X-X-X:X-X-X:X:X2X2X-X{.-.R y % O pXpXpXpXpXpXpXpXpXpXpXpXpX",
"pXpXpXpXpXpXpXpXpX+ , q H #.4.i.e.e.w.0. .|  .9.q.k.x.`.].OX*X=X-X-X-X-X>X-X-X-X-X-X:X:X=X{.-.R y % O pXpXpXpXpXpXpXpXpXpXpXpXpX",
"pXpXpXpXpXpXpXpXpX+ % 0 G #.4.i.p.r.9. .| | | 9.q.7.x.[.{.{.@X@X=X=X=X=X=X=X=X=X=X-X-X-X$X'.=.R y @ O pXpXpXpXpXpXpXpXpXpXpXpXpX",
"pXpXpXpXpXpXpXpX+ + , 1 i K +.<.4.3.|  . . .| 9.q.6.7.v.b.b.H..XXX#X@X*X&X&X&X&X*X*X$X#XoXz.=.T 0 % + pXpXpXpXpXpXpXpXpXpXpXpXpX",
"pXpXpXpXpXpXpXpX+ + % , 7 r D K ! ) [  . . .| | 9.q.6.u.v.v.A.K..XXXXX+X{.&X{.{.+X+XXX.XK.l.$.G 7 % O pXpXpXpXpXpXpXpXpXpXpXpXpX",
"pXpXpXpXpXpXpXpXpX@ @ @ @ , 1 r I / _ ]  . . .9.| 9.9.q.w.f.h.C.A.J.H.[.].].].].{.[. XK.J.k.%.F 7 % O pXpXpXpXpXpXpXpXpXpXpXpXpX",
"pXpXpXpXpXpXpXpX@ @ @ $ + + @ 1 t Z ^ _ ' ] ..| |  .9.0.r.g.j.M.D.D.H.[.[.`.'.'.[.b.J.D.M.6.%.F 7 @ + pXpXpXpXpXpXpXpXpXpXpXpXpX",
"pXpXpXpXpXpXpXpX% @ % @ + . + = 9 B Z U ~ ) [ ..9.w.w.y.t.j.n.N.Z.S.J.J.H.H.b.b.b.G.A.S.M.6.%.D 7 % . pXpXpXpXpXpXpXpXpXpXpXpXpX",
"pXpXpXpXpXpXpXpX@ @ + + + . pXpX1 9 e p A / _ 9.0.y.t.j.h.N.N.Z.Z.C.S.A.A.A.J.A.A.D.S.Z.V.6.%.D 7 @ + pXpXpXpXpXpXpXpXpXpXpXpXpX",
"pXpXpXpXpXpXpXpX+ % @ @ @ pXpXpXpX@ , 6 t U ) ..w.t.j.h.M.M.h.h.h.h.h.h.m.m.V.V.C.Z.Z.Z.V.i.%.F 7 @ + pXpXpXpXpXpXpXpXpXpXpXpXpX",
"pXpXpXpXpXpXpXpXpX@ % @ pXpXpXpXpX. + , e Z ) ] y.j.n.Z.M.h.a.8.4.4.4.5.5.u.p.g.m.M.N.N.M.6.%.F 7 % O pXpXpXpXpXpXpXpXpXpXpXpXpX",
"pXpXpXpXpXpXpXpXpXpXpXpXpXpXpXpXpX. + , e Z ) 9.y.n.N.M.m.i.>.+.L Y L Y @.&.2.9.t.n.N.N.N.i.$.F 7 % + pXpXpXpXpXpXpXpXpXpXpXpXpX",
"pXpXpXpXpXpXpXpXpXpXpXpXpXpXpXpXpX. + , e Z ) ..y.n.N.M.s.2.R S r y 0 r i J / ' 0.t.n.N.M.i.&.F 7 @ . pXpXpXpXpXpXpXpXpXpXpXpXpX",
"pXpXpXpXpXpXpXpXpXpXpXpXpXpXpXpXpX+ @ < e I ~ '  .r.f.f.5.#.F w = @ @ % 1 t Z ^ ' 9.r.g.f.5.%.F 7 @ + pXpXpXpXpXpXpXpXpXpXpXpXpX",
"pXpXpXpXpXpXpXpXpXpXpXpXpXpXpXpXpX+ @ , 9 B Z / ( <.>.<.%.L a < $     O % 6 t Z ! ( <.<.&.&.L a 7 % pXpXpXpXpXpXpXpXpXpXpXpXpXpX",
"pXpXpXpXpXpXpXpXpXpXpXpXpXpXpXpXpX+ % % 1 9 t V I J J H F D r pXpX    O @ d 9 t B V J J K H D r pXpXpXpXpXpXpXpXpXpXpXpXpXpXpXpX",
"pXpXpXpXpXpXpXpXpXpXpXpXpXpXpXpXpX@ @ @ = , 1 6 6 9 0 0 0 0 pXpXpXpX+ + % % d 1 6 6 w 0 7 w 0 pXpXpXpXpXpXpXpXpXpXpXpXpXpXpXpXpX",
"pXpXpXpXpXpXpXpXpXpXpXpXpXpXpXpXpX@ @ @ @ @ @ @ % @ @ , % @ pXpXpXpX@ @ @ @ @ @ @ % % @ % % % pXpXpXpXpXpXpXpXpXpXpXpXpXpXpXpXpX",
"pXpXpXpXpXpXpXpXpXpXpXpXpXpXpXpXpX@ @ @ + @ + . + . + . O O pXpXpXpX% @ @ @ + + O O + . O O O pXpXpXpXpXpXpXpXpXpXpXpXpXpXpXpXpX"
};
