/* XPM */
static char *result[] = {
/* columns rows colors chars-per-pixel */
"64 64 100 2 ",
"   c #0F022E",
".  c #14032E",
"X  c #1C042F",
"o  c #150631",
"O  c #1B0430",
"+  c #1B0A33",
"@  c #20052F",
"#  c #260431",
"$  c #2C0531",
"%  c #220F36",
"&  c #340532",
"*  c #3C0633",
"=  c #3D0832",
"-  c #241037",
";  c #261238",
":  c #2D163B",
">  c #2F193D",
",  c #341A3E",
"<  c #381D3F",
"1  c #440734",
"2  c #4B0735",
"3  c #4C0933",
"4  c #530935",
"5  c #5B0B35",
"6  c #610A37",
"7  c #6E0F35",
"8  c #640938",
"9  c #6A0A38",
"0  c #770F37",
"q  c #790F37",
"w  c #710A39",
"e  c #7B0B3A",
"r  c #6E1035",
"t  c #7D1137",
"y  c #391E40",
"u  c #3D2142",
"i  c #442545",
"p  c #462947",
"a  c #492947",
"s  c #462A48",
"d  c #4D2C49",
"f  c #512E4A",
"g  c #55324D",
"h  c #59334E",
"j  c #5E3650",
"k  c #563850",
"l  c #5C3B52",
"z  c #623A53",
"x  c #6A3E55",
"c  c #644056",
"v  c #6C4056",
"b  c #6A4458",
"n  c #6E485B",
"m  c #74465A",
"M  c #724A5C",
"N  c #7C4B5D",
"B  c #7D5362",
"V  c #850C3B",
"C  c #8C0D3C",
"Z  c #950D3D",
"A  c #9C0E3E",
"S  c #831237",
"D  c #8D1437",
"F  c #861138",
"G  c #8D1338",
"H  c #911437",
"J  c #951438",
"K  c #9B1638",
"L  c #A00E3F",
"P  c #A4113D",
"I  c #AA153B",
"U  c #A61839",
"Y  c #AD193A",
"T  c #B7163D",
"R  c #BA173D",
"E  c #B3193A",
"W  c #BE193C",
"Q  c #C31A3C",
"!  c #CB1C3C",
"~  c #D41E3C",
"^  c #D91F3C",
"/  c #814E5F",
"(  c #834F60",
")  c #855261",
"_  c #8E5665",
"`  c #855C67",
"'  c #8D5966",
"]  c #865D68",
"[  c #8D5C68",
"{  c #905765",
"}  c #915966",
"|  c #955D69",
" . c #985F6A",
".. c #94626C",
"X. c #9B636C",
"o. c #9D6A70",
"O. c #A0686F",
"+. c #A46C72",
"@. c #A57175",
"#. c None",
/* pixels */
"#.#.#.#.#.#.#.#.#.#.#.#.#.#.#.O r r r r r r r r r r r r r r r 7 7 7 7 7 w r r r 7 7 7 7 7 7 r 7 X #.#.#.#.#.#.#.#.#.#.#.#.#.#.#.",
"#.#.#.#.#.#.#.#.#.#.#.#.#.#.$ @ Q ~ ~ ~ ~ ~ ~ ~ ~ ^ ^ ~ ~ ~ ~ ~ ~ ~ ~ ^ ~ ~ ~ ^ ~ ~ ~ ^ ^ ~ ~ Q 1 6 #.#.#.#.#.#.#.#.#.#.#.#.#.#.",
"#.#.#.#.#.#.#.#.#.#.#.#.#.9 8 # Q ~ ~ ~ ~ ~ ~ ~ ~ ~ ~ ~ ~ ~ ~ ~ ~ ~ ~ ~ ~ ~ ~ ~ ~ ~ ~ ~ ~ ~ ~ W 4 R D #.#.#.#.#.#.#.#.#.#.#.#.#.",
"#.#.#.#.#.#.#.#.#.#.#.#.9 A 9 X Q ~ ~ ~ ~ ~ ~ ~ ~ ~ ~ ~ ~ ~ ~ ~ ~ ~ ~ ~ ~ ~ ~ ~ ~ ~ ~ ~ ~ ~ ~ W 4 W ~ K #.#.#.#.#.#.#.#.#.#.#.#.",
"#.#.#.#.#.#.#.#.#.#.& e A A 9 @ Q ~ ~ ~ ~ ~ ~ ~ ~ ~ ~ ~ ~ ~ ~ ~ ~ ~ ~ ~ ~ ~ ~ ~ ~ ~ ~ ~ ~ ~ ~ W 4 Q ~ ~ U 3 #.#.#.#.#.#.#.#.#.#.",
"#.#.#.#.#.#.#.#.#.1 V A A L 9 @ W ~ ~ ~ ~ ~ ~ ~ ~ ~ ~ ~ ~ ~ ~ ~ ~ ~ ~ ~ ~ ~ ~ ~ ~ ~ ~ ~ ~ ~ ~ W 4 Q ~ ~ ~ E 5 #.#.#.#.#.#.#.#.#.",
"#.#.#.#.#.#.#.#.2 C A A A L 9 . S T T T E T T T T T T T T T T T T T T T T T E T T T T E E E W t * T ~ ~ ~ ^ W r #.#.#.#.#.#.#.#.",
"#.#.#.#.#.#.#.5 Z A A A A C 1 @ R ~ ! ~ ~ ! ~ ~ ~ ! ~ ! ~ ! ~ ~ ~ ! ! ~ ~ ! ~ ~ ! ~ ~ ~ ! ~ ~ E = 0 W ~ ~ ~ ~ ! t #.#.#.#.#.#.#.",
"#.#.#.#.#.#.8 Z A A A A V 8 5 X Q ~ ~ ~ ~ ~ ~ ~ ~ ~ ~ ~ ~ ~ ~ ~ ~ ~ ~ ~ ~ ~ ~ ~ ~ ~ ~ ~ ~ ~ ~ W 4 U H ! ~ ~ ~ ~ ! D #.#.#.#.#.#.",
"#.#.#.#.#.w A A A A A e 8 Z 9 # Q ~ ~ ~ ~ ~ ~ ~ ~ ~ ~ ~ ~ ~ ~ ~ ~ ~ ~ ~ ~ ~ ~ ~ ~ ~ ~ ~ ~ ~ ~ W 4 Q ~ W ! ~ ~ ~ ~ ~ J #.#.#.#.#.",
"#.#.#.* e A A A A A w 9 A L 8 @ Q ^ ~ ~ ~ ~ ~ ~ ~ ~ ~ ^ ~ ~ ^ ~ ~ ~ ~ ~ ~ ^ ~ ~ ^ ~ ~ ~ ~ ~ ~ Q 4 W ^ ~ W E ~ ~ ~ ~ ~ U 3 #.#.#.",
"#.#.#.9 A A A A Z 9 w A A L 9 . F R R R R R R R R R R R R R R R W R R T T W T W T T W T W W W S 1 W ~ ~ ~ K H ~ ~ ~ ~ ~ E 3 #.#.",
"#.#.#.9 A A A Z 8 e A A A Z 2 X E ! ! ! ! ! ! ! ! ! ! ! ! ! ! ! ! ! ! ! ! ~ ! ! ! ~ ! ! ! ~ ! Y & t Q ~ ~ ~ W W ! ~ ~ ~ ~ 5 #.#.",
"#.#.#.9 A L C 8 V A A A C 6 4 @ Q ~ ^ ~ ^ ~ ~ ~ ~ ~ ~ ^ ~ ~ ~ ~ ~ ~ ~ ~ ~ ~ ~ ~ ~ ~ ~ ~ ~ ~ ~ Q 4 U H ~ ~ ~ ~ Q S W ^ ~ ~ 5 #.#.",
"#.#.#.9 L V 5 C A A A V 5 Z 9 # Q ~ ~ ~ ~ ~ ~ ~ ~ ~ ~ ~ ~ ~ ~ ~ ~ ~ ~ ~ ~ ~ ~ ~ ~ ~ ~ ~ ~ ~ ~ W 4 Q ~ T ! ~ ~ ~ Q Y ! ~ ^ 5 #.#.",
"#.#.#.9 e 8 Z A A A e 8 Z A 9 X Q ^ ~ ~ ~ ~ ~ ^ ~ ~ ~ ~ ~ ^ ~ ~ ~ ~ ~ ^ ~ ~ ~ ~ ~ ~ ~ ~ ~ ~ ~ Q 4 W ~ ~ W ! ~ ~ ~ ~ W W ~ 5 #.#.",
"#.#.#.1 9 A A A A w 9 Z A L w . C W W W W W W W R R W R R W W W R R Q R R R R R W W W W W W W D 1 R ^ ~ ~ Q Q ~ ~ ~ ~ J K 5 #.#.",
"#.#.#.5 A A A Z 9 w A A A A 4 X U ! ! ! Q ! Q ! ! ! ! ! ! ! Q ! ! ! ! ! ! ! ! ! Q ! Q ! ! ! Q U & F ~ ~ ~ ~ Q I ! ~ ~ ^ F O #.#.",
"#.#.#.9 A A Z 8 e A A A Z 9 2 O Q ~ ~ ~ ~ ~ ~ ~ ~ ~ ~ ~ ~ ~ ~ ~ ~ ^ ~ ~ ~ ~ ~ ~ ~ ^ ~ ~ ~ ~ ~ Q 4 J H ~ ~ ~ ~ Y F Q ^ ^ H #.#.#.",
"#.#.#.9 L C 5 V A A A C 5 V 9 # Q ~ ~ ~ ~ ~ ~ ~ ~ ~ ~ ~ ~ ~ ~ ~ ~ ~ ~ ~ ~ ~ ~ ~ ~ ~ ~ ~ ~ ~ ~ Q 4 R ! R ! ~ ~ ^ E Y ! ^ D #.#.#.",
"#.#.#.9 C 5 C L A A V 5 C L 9 @ R ~ ~ ! ~ ~ ~ ! ! ~ ~ ! ! ~ ! ~ ! ~ ! ~ ! ~ ! ~ ~ ~ ! ~ ! ~ ~ E 4 Q ^ ! R ! ~ ~ ~ ~ Y E H #.#.#.",
"#.#.#.2 9 Z A A A e 6 Z A A 9 . S T T T T T T T T T T T T T R T T T T T T E T T T T T T T T T t * I ^ ~ ~ R Q ~ ~ ~ Q D 6 #.#.#.",
"#.#.#.5 A A A A w 9 A A A V * @ W ~ ~ ~ ~ ~ ~ ~ ~ ~ ~ ~ ~ ~ ~ ~ ~ ~ ~ ~ ~ ~ ~ ~ ~ ~ ~ ~ ~ ~ ~ Q 1 t Q ~ ~ ~ I J ~ ~ ~ ~ r #.#.#.",
"#.#.1 A A A Z 8 w A A A e 9 6 @ Q ~ ~ ~ ~ ~ ~ ~ ~ ~ ~ ~ ~ ~ ~ ~ ~ ~ ~ ~ ~ ~ ~ ~ ~ ~ ~ ~ ~ ~ ~ W 4 R R Q ~ ~ ~ K J ~ ~ ^ H #.#.#.",
"#.#.1 A A C 9 e A A A 9 9 A 9 @ Q ~ ~ ~ ~ ~ ~ ~ ~ ~ ~ ~ ~ ~ ~ ~ ~ ~ ~ ~ ~ ~ ~ ~ ~ ~ ~ ~ ~ ~ ~ W 4 Q ~ Q Q ~ ~ ~ W W ~ ~ H #.#.#.",
"#.#.1 A C 8 V A A Z 9 w A L 8 @ Q ~ ~ ~ ~ ~ ~ ~ ~ ~ ~ ^ ~ ~ ~ ~ ~ ~ ~ ~ ~ ~ ~ ~ ^ ~ ~ ~ ~ ~ ~ W 4 Q ~ ~ Q Q ~ ~ ~ ! R ~ H #.#.#.",
"#.#.2 V 8 C A A Z 8 e A A A 9 X U Q ! ! Q ! Q ! ! ! ! Q ! ! ! ! ! ! ! ! ! ! ! ! ! Q Q ! ! ! ! U 2 Q ~ ~ ~ W D Q ~ ~ ! J r #.#.#.",
"#.#.# 5 Z A A C 8 V A A A A 6 o H W W W Q W W Q R R W Q W R R R R R R W R W R R W W W Q R Q R G & K ~ ~ ~ ~ E S ! ~ ~ ! r #.#.#.",
"#.#.#.9 A A V 5 C A A A A w * # Q ~ ~ ~ ~ ~ ~ ~ ~ ~ ~ ~ ^ ~ ~ ^ ~ ~ ~ ~ ~ ~ ~ ^ ~ ~ ~ ~ ~ ~ ~ Q 2 S K ~ ~ ~ ~ Q R ! ~ ~ ! 5 #.#.",
"#.#.#.9 L e 8 Z A A A Z 9 e 9 O Q ~ ~ ~ ~ ~ ~ ~ ~ ~ ~ ~ ~ ~ ~ ~ ~ ~ ~ ~ ~ ~ ~ ~ ~ ~ ~ ~ ~ ~ ~ W 4 R K I ~ ~ ~ ~ ~ Q Q ~ ~ 5 #.#.",
"#.#.#.9 e 9 Z A A A C 8 e A 9 # ! ~ ~ ~ ~ ~ ~ ~ ~ ~ ~ ~ ~ ~ ~ ~ ^ ~ ^ ~ ~ ^ ~ ~ ~ ~ ~ ~ ~ ~ ~ Q 4 R ~ Q W ~ ~ ~ ~ ~ U K ~ 5 #.#.",
"#.#.#.1 w A A A A C 8 V A A 9 o S R R R W R W T R R R R R R R R R T R R T R T R R R W R R R R S 1 R ^ ^ ! E ~ ~ ~ ~ ~ K H 4 #.#.",
"#.#.& w A A A A V 5 C A A Z 2 @ E ~ ! ! ! ! ~ ! ! ! ! ! ! ! ! ! ! ! ! ! ! ! ! ! ! ! ! ~ ! ! ! E * q ! ~ ^ ~ I Y ~ ~ ~ ~ D . #.#.",
"#.#.1 A A A A e 8 Z A A C 8 4 @ Q ~ ~ ~ ~ ~ ~ ~ ~ ~ ~ ~ ~ ~ ~ ~ ~ ^ ~ ~ ^ ~ ~ ~ ~ ~ ~ ~ ~ ~ ~ W 4 U R ~ ~ ~ Q D Q ~ ~ ^ G #.#.#.",
"#.#.1 L A Z w 9 A A A V 6 C 9 X Q ~ ~ ~ ~ ~ ~ ~ ~ ~ ~ ~ ~ ~ ~ ~ ~ ^ ~ ^ ~ ~ ~ ~ ~ ~ ~ ~ ~ ~ ~ Q 4 Q ! W ! ~ ~ ~ Q Q ~ ^ H #.#.#.",
"#.#.1 A Z 9 w A A A e 8 Z L 9 X E ! ! ! ~ ! ! ~ ! ~ ~ ! ! ~ ! ~ ! ! ! ! ! ~ ! ! ! ~ ! ~ ! ~ ! Y 2 Q ~ ~ W Q ~ ~ ~ Q R ~ H #.#.#.",
"#.#.2 Z 8 e A A A w 9 Z A A 9 . w I L L L P L P L L P L P P L P L P L L P P P P L P P L P L P 9 1 Q ~ ~ ~ R P ~ ~ ~ Y D S #.#.#.",
"#.#.& 8 V A A A 9 w A A A A w o 9 w w w w 9 w w w w w w w 9 w w w w w 9 w 9 w w w 9 w w w w w 8 2 L ! ~ ~ ~ K H ~ ~ ~ W 4 #.#.#.",
"#.#.  8 L A C 8 e A A A A A 5                     . .           o                       .       X 9 L Q ~ ~ ~ Y W ! ~ ^ Q 3 #.#.",
"#.#.#.8 L V 8 V A A A A A 5 . % < y f : f d : h u u h : a a > h u y f y y y d y d f : h i < f ; . . 5 A T ~ ~ ~ ! W ! ~ ~ 5 #.#.",
"#.#.#.9 V 8 C A A A A Z 3   + v h h v i N N i _ h j } i x x i _ j j _ i f g x i N N i _ j h x i j + o 2 Z T ~ ~ ~ ! T Q ^ 5 #.#.",
"#.#.#.2 9 Z A A A A C * + , u f i a h a l g i d d k z g d a s z l k f i i i h k l z k z a i f i a y y + * C T ! ~ ~ ~ H U 5 #.#.",
"#.#.#.5 Z A A A A V $ - m } _ _ } _ | | o.} _ _ | +.O.O.' _ | +.+.O._ _ _ _ } +.O.+.o.o.} _ _ _ _ _ _ v % $ V L ! ~ ~ ~ S $ #.#.",
"#.#.1 A A A A A e # > N } } } } } } } } } } } } } { { { } } } } _ } } } } } } _ } _ } } } } } } } } } } N y # e I Q ~ ^ D #.#.#.",
"#.#.1 A A A A 9 X . a h g g h h g g h h h g h h g g h g h g g h g h g h h f g g g h g g h h h g j g g f g s o O 9 L Q ^ D #.#.#.",
"#.#.1 A A Z 5 O a ,                                                       .                           .     y i O 5 K W D #.#.#.",
"#.#.* e V 2 o g { i h j x x x g % . z h < v h a o                             o a h ; O h j < v a i j z -   y _ g O & 1 = #.#.#.",
"#.#.#.#.o + z } } a z v / / / z f + ) / i N u X     .                         . o u f + ) ( i / f f x N x % y } } z + #.#.#.#.#.",
"#.#.#.#.#.h } { +.g a d < d l M u + ( ( , :                                         o + ) | y c n n c z h - y } _ } j #.#.#.#.#.",
"#.#.#.#.#.z } } +.c N / i v _ X.z + ( o.d y                         o     o           + ( @.d | X.X... .} y y ' _ | v #.#.#.#.#.",
"#.#.#.#.#.z } _ @.l i a i g g g < + ( @.u -             o                             + B @.u k h f i a d % y } } | m #.#.#.#.#.",
"#.#.#.#.#.z { _ +.z N ' +.| } | j + ( @.d u                                       o   + ) +.d X.X.x g j _ < y } _  .` #.#.#.#.#.",
"#.#.#.#.#.z } _ +.l f z l j h z u + / @.u -                                           + ( @.u j j h i i l ; y _ _ | x #.#.#.#.#.",
"#.#.#.#.#.z } _ @.k x [ B h u ' g + ) @.s >                           o o             + ( @.s m ) ..) ) m , y } } ..B #.#.#.#.#.",
"#.#.#.#.#.z } _ @.l x m x h y N g + ( @.a <       o                                   + ( @.s m m m m m m , < } _  .` #.#.#.#.#.",
"#.#.#.#.#.z } } @.l d n B v n h u + ( @.u :               o                           + ) @.u f h M M j g ; < ' }  .` #.#.#.#.#.",
"#.#.#.#.#.z } _ +.z N } } ' ' _ z + ( @.d y                                 o   o     + ( +.d x ( } [ ( x y y _ }  .` #.#.#.#.#.",
"#.#.#.#.#.z } } | i i l c l g z y + ( ) , -                                           + ) ) y a y d g z f % y } }  .` #.#.#.#.#.",
"#.#.#.#.#.z } _ X.g N X.+.X.X.+.z + ) ) a u                                           + ) ..d B i x } O.} y y _ _  .] #.#.#.#.#.",
"#.#.#.#.#.z } _ O.g i d f g j g y + ( @.u ;       o   .     o   o                     + ) +.u d u j f g g % y } _  .] #.#.#.#.#.",
"#.#.#.#.#.z } _ @.l m i z m o.' g O ) ..s ,                                 o         + ) ) i ( o.o.) [ ) , y } _ X.` #.#.#.#.#.",
"#.#.#.#.#.z } _ +.g h y g j x v a + ( _ u :                                           + (  .u x x x x x x : y } _ | B #.#.#.#.#.",
"#.#.#.#.#.z } _ | a h B B N v h i + ) ' u :       o         o         o               + ( ( y B B j i a x ; y } _ } z #.#.#.#.#.",
"#.#.#.#.#.z } _ X.g / | | | | m j + ( N a u                                           + ( ( a | } m j z | y y } } } z #.#.#.#.#."
};
