/* XPM */
static char *result[] = {
/* columns rows colors chars-per-pixel */
"64 64 29 1 ",
"  c #6FC8A0",
". c #70C9A1",
"X c #6FC9A1",
"o c #6FC9A0",
"O c #34912C",
"+ c #34902B",
"@ c #88D9B9",
"# c #34912B",
"$ c #B9F888",
"% c #80D15F",
"& c #89D9B9",
"* c #B9F989",
"= c #81D15F",
"- c #B8F888",
"; c #B9F889",
": c #35912C",
"> c #80D05E",
", c #3DB188",
"< c #355707",
"1 c #345607",
"2 c #10A067",
"3 c #80D05F",
"4 c #10A167",
"5 c #345606",
"6 c #3DB189",
"7 c #345707",
"8 c #11A168",
"9 c #3CB188",
"0 c white",
/* pixels */
"    ........XXXXXXXX....ooooXXXXoooo                ....XXXX....",
"    ........XXXXXXXX....ooooXXXXoooo                ....XXXX....",
"    ........XXXXXXXX....ooooXXXXoooo                ....XXXX....",
"    ........XXXXXXXX....ooooXXXXoooo                ....XXXX....",
"............XXXX....XXXXOOOO++++OOOO++++@@@@........XXXX    ....",
"............XXXX....XXXXOOOO++++OOOO++++@@@@........XXXX    ....",
"............XXXX....XXXXOOOO++++OOOO++++@@@@........XXXX    ....",
"............XXXX....XXXXOOOO++++OOOO++++@@@@........XXXX    ....",
"....XXXXXXXX....####++++$$$$%%%%%%%%$$$$++++++++....&&&&oooo....",
"....XXXXXXXX....####++++$$$$%%%%%%%%$$$$++++++++....&&&&oooo....",
"....XXXXXXXX....####++++$$$$%%%%%%%%$$$$++++++++....&&&&oooo....",
"....XXXXXXXX....####++++$$$$%%%%%%%%$$$$++++++++....&&&&oooo....",
"oooo    ....++++****$$$$********$$$$$$$$$$$$====####............",
"oooo    ....++++****$$$$********$$$$$$$$$$$$====####............",
"oooo    ....++++****$$$$********$$$$$$$$$$$$====####............",
"oooo    ....++++****$$$$********$$$$$$$$$$$$====####............",
"....XXXX++++%%%%$$$$$$$$$$$$----$$$$----;;;;$$$$====::::    XXXX",
"....XXXX++++%%%%$$$$$$$$$$$$----$$$$----;;;;$$$$====::::    XXXX",
"....XXXX++++%%%%$$$$$$$$$$$$----$$$$----;;;;$$$$====::::    XXXX",
"....XXXX++++%%%%$$$$$$$$$$$$----$$$$----;;;;$$$$====::::    XXXX",
"........OOOO%%%%%%%%$$$$----%%%%%%%%;;;;$$$$>>>>%%%%++++        ",
"........OOOO%%%%%%%%$$$$----%%%%%%%%;;;;$$$$>>>>%%%%++++        ",
"........OOOO%%%%%%%%$$$$----%%%%%%%%;;;;$$$$>>>>%%%%++++        ",
"........OOOO%%%%%%%%$$$$----%%%%%%%%;;;;$$$$>>>>%%%%++++        ",
"....++++>>>>::::$$$$$$$$$$$$$$$$;;;;$$$$$$$$$$$$++++%%%%OOOO    ",
"....++++>>>>::::$$$$$$$$$$$$$$$$;;;;$$$$$$$$$$$$++++%%%%OOOO    ",
"....++++>>>>::::$$$$$$$$$$$$$$$$;;;;$$$$$$$$$$$$++++%%%%OOOO    ",
"....++++>>>>::::$$$$$$$$$$$$$$$$;;;;$$$$$$$$$$$$++++%%%%OOOO    ",
"....%%%%++++%%%%------------$$$$********$$$$;;;;%%%%++++%%%%,,,,",
"....%%%%++++%%%%------------$$$$********$$$$;;;;%%%%++++%%%%,,,,",
"....%%%%++++%%%%------------$$$$********$$$$;;;;%%%%++++%%%%,,,,",
"....%%%%++++%%%%------------$$$$********$$$$;;;;%%%%++++%%%%,,,,",
"    <<<<====####%%%%********%%%%>>>>$$$$****%%%%++++>>>>11112222",
"    <<<<====####%%%%********%%%%>>>>$$$$****%%%%++++>>>>11112222",
"    <<<<====####%%%%********%%%%>>>>$$$$****%%%%++++>>>>11112222",
"    <<<<====####%%%%********%%%%>>>>$$$$****%%%%++++>>>>11112222",
"oooo++++%%%%++++%%%%%%%%%%%%3333%%%%>>>>>>>>3333OOOO%%%%++++4444",
"oooo++++%%%%++++%%%%%%%%%%%%3333%%%%>>>>>>>>3333OOOO%%%%++++4444",
"oooo++++%%%%++++%%%%%%%%%%%%3333%%%%>>>>>>>>3333OOOO%%%%++++4444",
"oooo++++%%%%++++%%%%%%%%%%%%3333%%%%>>>>>>>>3333OOOO%%%%++++4444",
"XXXX1111++++%%%%%%%%####OOOO%%%%====++++++++%%%%%%%%++++11114444",
"XXXX1111++++%%%%%%%%####OOOO%%%%====++++++++%%%%%%%%++++11114444",
"XXXX1111++++%%%%%%%%####OOOO%%%%====++++++++%%%%%%%%++++11114444",
"XXXX1111++++%%%%%%%%####OOOO%%%%====++++++++%%%%%%%%++++11114444",
"....1111++++++++>>>>>>>>%%%%++++####3333>>>>%%%%OOOOOOOO55552222",
"....1111++++++++>>>>>>>>%%%%++++####3333>>>>%%%%OOOOOOOO55552222",
"....1111++++++++>>>>>>>>%%%%++++####3333>>>>%%%%OOOOOOOO55552222",
"....1111++++++++>>>>>>>>%%%%++++####3333>>>>%%%%OOOOOOOO55552222",
"....66667777####++++++++OOOO%%%%%%%%++++++++++++++++111188889999",
"....66667777####++++++++OOOO%%%%%%%%++++++++++++++++111188889999",
"....66667777####++++++++OOOO%%%%%%%%++++++++++++++++111188889999",
"....66667777####++++++++OOOO%%%%%%%%++++++++++++++++111188889999",
"....    4444++++77777777++++OOOO++++++++11111111++++44446666....",
"....    4444++++77777777++++OOOO++++++++11111111++++44446666....",
"....    4444++++77777777++++OOOO++++++++11111111++++44446666....",
"....    4444++++77777777++++OOOO++++++++11111111++++44446666....",
"XXXX        88884444222277771111777711114444444444444444....    ",
"XXXX        88884444222277771111777711114444444444444444....    ",
"XXXX        88884444222277771111777711114444444444444444....    ",
"XXXX        88884444222277771111777711114444444444444444....    ",
"................    ,,,,444444442222444444446666................",
"................    ,,,,444444442222444444446666................",
"................    ,,,,444444442222444444446666................",
"................    ,,,,444444442222444444446666................"
};
